<svg width="24" height="24" viewBox="0 0 24 24" fill="none" xmlns="http://www.w3.org/2000/svg">
<circle cx="12" cy="12" r="12" fill="url(#paint0_linear_15_5)"/>
<path d="M9.44801 14.7747L7.13468 12.4613C7.01003 12.3367 6.84096 12.2667 6.66468 12.2667C6.4884 12.2667 6.31933 12.3367 6.19468 12.4613C6.07003 12.586 6 12.7551 6 12.9313C6 13.0186 6.01719 13.1051 6.0506 13.1857C6.084 13.2664 6.13296 13.3396 6.19468 13.4013L8.98135 16.188C9.24135 16.448 9.66135 16.448 9.92135 16.188L16.9747 9.13468C17.0993 9.01003 17.1694 8.84096 17.1694 8.66468C17.1694 8.4884 17.0993 8.31933 16.9747 8.19468C16.85 8.07003 16.681 8 16.5047 8C16.3284 8 16.1593 8.07003 16.0347 8.19468L9.44801 14.7747Z" fill="white"/>
<defs>
<linearGradient id="paint0_linear_15_5" x1="5.5" y1="2" x2="20" y2="24" gradientUnits="userSpaceOnUse">
<stop stop-color="#5BA0F1"/>
<stop offset="1" stop-color="#2878D5"/>
</linearGradient>
</defs>
</svg>
