<svg width="20" height="27" viewBox="0 0 20 27" fill="none" xmlns="http://www.w3.org/2000/svg">
<path d="M1.20835 16.167C1.54169 15.8337 1.94447 15.6737 2.41669 15.687C2.88891 15.7014 3.29169 15.8753 3.62502 16.2087L8.33335 20.917L8.33335 2.33366C8.33335 1.86144 8.49335 1.46533 8.81335 1.14533C9.13224 0.826437 9.5278 0.666992 10 0.666992C10.4722 0.666992 10.8684 0.826437 11.1884 1.14533C11.5072 1.46533 11.6667 1.86144 11.6667 2.33366L11.6667 20.917L16.4167 16.167C16.75 15.8337 17.1461 15.667 17.605 15.667C18.0628 15.667 18.4584 15.8337 18.7917 16.167C19.125 16.5003 19.2917 16.8964 19.2917 17.3553C19.2917 17.8131 19.125 18.2087 18.7917 18.542L11.1667 26.167C11 26.3337 10.8195 26.452 10.625 26.522C10.4306 26.5909 10.2222 26.6253 10 26.6253C9.7778 26.6253 9.56947 26.5909 9.37502 26.522C9.18058 26.452 9.00002 26.3337 8.83335 26.167L1.16669 18.5003C0.861134 18.1948 0.708353 17.8131 0.708353 17.3553C0.708353 16.8964 0.875021 16.5003 1.20835 16.167Z" fill="white"/>
</svg>
