<svg width="20" height="28" viewBox="0 0 20 28" fill="none" xmlns="http://www.w3.org/2000/svg">
<path d="M0.692841 27.1565C0.230947 26.8034 0 26.3855 0 25.9026C0 25.4206 0.230947 25.0031 0.692841 24.6501L14.2263 14.3068L0.646651 3.92824C0.21555 3.59876 0 3.18691 0 2.6927C0 2.19848 0.230947 1.77487 0.692841 1.42185C1.15473 1.06884 1.70162 0.892334 2.33349 0.892334C2.96413 0.892334 3.51039 1.06884 3.97229 1.42185L19.4919 13.3184C19.6767 13.4596 19.8079 13.6125 19.8855 13.7773C19.9618 13.942 20 14.1185 20 14.3068C20 14.4951 19.9618 14.6716 19.8855 14.8363C19.8079 15.0011 19.6767 15.154 19.4919 15.2952L3.9261 27.1918C3.495 27.5212 2.96413 27.686 2.33349 27.686C1.70162 27.686 1.15473 27.5095 0.692841 27.1565Z" fill="#F3F3F4"/>
</svg>
