<svg width="16" height="16" viewBox="0 0 16 16" fill="none" xmlns="http://www.w3.org/2000/svg">
<circle cx="8" cy="8" r="8" fill="url(#paint0_linear_48_2)"/>
<path d="M6.75001 9.73418L5.30418 8.28834C5.22627 8.21043 5.1206 8.16667 5.01043 8.16667C4.90025 8.16667 4.79458 8.21043 4.71668 8.28834C4.63877 8.36625 4.595 8.47191 4.595 8.58209C4.595 8.63665 4.60575 8.69067 4.62662 8.74107C4.6475 8.79147 4.6781 8.83727 4.71668 8.87584L6.45834 10.6175C6.62084 10.78 6.88334 10.78 7.04584 10.6175L11.4542 6.20918C11.5321 6.13127 11.5759 6.0256 11.5759 5.91543C11.5759 5.80525 11.5321 5.69958 11.4542 5.62168C11.3763 5.54377 11.2706 5.5 11.1604 5.5C11.0502 5.5 10.9446 5.54377 10.8667 5.62168L6.75001 9.73418Z" fill="white"/>
<defs>
<linearGradient id="paint0_linear_48_2" x1="3.66667" y1="1.33333" x2="13.3333" y2="16" gradientUnits="userSpaceOnUse">
<stop stop-color="#5BA0F1"/>
<stop offset="1" stop-color="#2878D5"/>
</linearGradient>
</defs>
</svg>
