<svg width="54" height="55" viewBox="0 0 54 55" fill="none" xmlns="http://www.w3.org/2000/svg">
<path d="M24.8165 0.112522C21.448 0.573604 18.3952 2.66801 17.0179 5.45013C16.5793 6.3254 16.4477 7.17723 16.5881 8.22443C16.6758 8.92778 16.9653 10.0062 17.2197 10.5377C17.3425 10.7956 17.3338 10.8346 17.1232 11.241C16.8162 11.8271 16.8074 12.6633 17.1144 13.2338C17.4917 13.9215 18.2548 14.4608 19.018 14.5702C19.3426 14.6171 19.3777 14.6483 19.6058 15.1172C20.176 16.2738 21.1936 17.3601 22.3603 18.04C22.7024 18.251 23.0357 18.4308 23.0884 18.4464C23.1498 18.462 23.1059 18.7121 22.9743 19.1575C22.7814 19.8218 22.7638 19.8453 22.4655 19.9078C16.746 21.2051 15.2723 21.6505 14.395 22.3851C13.2283 23.3542 12.9915 24.3076 13.0002 27.9259C13.009 30.5986 13.0704 31.5833 13.2371 31.7318C13.3073 31.7943 13.6669 31.849 14.1582 31.8725L14.9652 31.9115L14.9915 34.0372L15.0091 36.1707H14.5792C13.6231 36.1707 13.4827 36.3817 13.5353 37.7493C13.5617 38.5464 13.5967 38.7652 13.7634 39.0388C13.9915 39.4295 14.4652 39.789 14.9126 39.914C15.1582 39.9766 18.3338 40 26.5534 40C37.7469 40 37.8609 39.9922 38.2557 39.8359C38.7469 39.6405 39.0101 39.4217 39.247 39.0231C39.3961 38.7652 39.44 38.5386 39.4663 37.7493C39.5189 36.3817 39.3786 36.1707 38.4224 36.1707H37.9925L38.0101 34.045L38.0364 31.9115L38.8522 31.8725C39.5101 31.8412 39.6944 31.8021 39.7909 31.6927C39.9575 31.4817 40.0365 29.8328 39.9838 27.1835C39.9575 25.347 39.9137 24.7687 39.7909 24.331C39.4312 23.0338 38.7382 22.2601 37.4486 21.713C36.6767 21.3848 35.1064 20.9628 32.08 20.2673C31.08 20.0328 30.2466 19.8374 30.2378 19.8218C30.1764 19.7515 29.8255 18.4855 29.8518 18.462C29.8781 18.4464 30.1413 18.2901 30.4483 18.1103C31.8168 17.321 32.7467 16.3442 33.3432 15.0469L33.5537 14.6014H33.9924C34.545 14.6014 35.3696 14.2732 35.7731 13.8903C36.2118 13.4761 36.5012 12.8431 36.5012 12.296C36.5012 11.6786 36.3872 11.3348 36.0188 10.8503L35.7205 10.4517L35.9837 9.06845C36.3433 7.21631 36.317 6.3254 35.8959 5.44231C35.7468 5.11409 35.3872 4.53578 35.1064 4.15285C32.8607 1.12846 28.8518 -0.450154 24.8165 0.112522ZM27.6938 1.32384C29.0799 1.49577 30.6413 2.06626 31.7817 2.81649C32.9485 3.58236 34.1152 4.88745 34.624 5.98936C34.931 6.65363 34.8871 7.64613 34.4836 9.48264L34.3959 9.87339L33.8608 9.83431L33.3257 9.79524L32.9923 8.95904C32.3344 7.3179 31.5537 6.22381 30.7291 5.78617C30.3957 5.61424 30.2115 5.57517 29.7378 5.57517C28.9132 5.57517 28.3079 5.91903 27.6237 6.77086C26.8868 7.6852 26.1061 8.28695 25.0534 8.74804C24.5709 8.95904 23.8779 9.2013 23.5095 9.27945C22.8164 9.43575 21.2111 9.59987 20.3777 9.59987C20.1146 9.59987 19.7988 9.64675 19.676 9.70927C19.4303 9.8265 18.518 10.0141 18.4566 9.96717C18.4391 9.95154 18.325 9.58424 18.2022 9.16223C18.0268 8.56048 17.9741 8.19317 17.9654 7.5289C17.9654 6.73178 17.9829 6.62237 18.2373 6.08314C19.018 4.42637 20.5269 2.99624 22.3427 2.16004C24.0533 1.37073 25.8429 1.08939 27.6938 1.32384ZM30.3694 7.16942C30.5975 7.38042 30.9221 7.81024 31.0975 8.13066C31.58 9.02156 32.3607 11.1785 32.4572 11.8662C32.9134 15.0547 30.0799 17.8837 26.4569 17.8837C23.334 17.8837 20.8251 15.8675 20.4304 13.0384C20.3339 12.3976 20.4391 11.1941 20.6058 10.9519C20.6409 10.905 21.1848 10.8268 21.8076 10.7799C25.0446 10.5298 27.2201 9.49827 28.7728 7.46639C29.0799 7.06782 29.5009 6.78648 29.7817 6.78648C29.8781 6.78648 30.1413 6.95841 30.3694 7.16942ZM34.545 11.2879C35.0363 11.5692 35.238 12.2491 34.9749 12.7102C34.7906 13.0228 34.4661 13.2651 34.159 13.3198L33.8871 13.3667L33.8959 12.679C33.9046 12.296 33.8783 11.7724 33.8345 11.5223L33.7643 11.0613L34.0538 11.116C34.2117 11.1394 34.4397 11.2176 34.545 11.2879ZM19.0268 11.6865C18.9829 11.9834 18.9654 12.4601 19.0005 12.7493C19.0443 13.2573 19.0356 13.2729 18.8777 13.1947C18.4391 12.9916 18.1934 12.4679 18.2987 11.9756C18.3426 11.7333 18.8601 11.1629 19.0356 11.1629C19.0707 11.1629 19.0619 11.3973 19.0268 11.6865ZM26.4569 19.1341C26.9394 19.1341 27.5886 19.0794 27.9044 19.0247C28.2202 18.9622 28.4834 18.9231 28.4834 18.9309C28.5623 19.0012 28.8518 20.1188 28.7992 20.1579C28.7641 20.1813 28.2465 20.4939 27.6588 20.8534L26.571 21.4942L25.3604 20.7752L24.1498 20.0563L24.3165 19.5405C24.4042 19.2513 24.4832 18.9934 24.4832 18.97C24.4832 18.9465 24.7288 18.97 25.0358 19.0247C25.3341 19.0872 25.9745 19.1341 26.4569 19.1341ZM24.3165 21.6661L25.2902 22.2444L24.7639 22.5649C24.4744 22.7368 24.2025 22.8931 24.1498 22.9009C24.0972 22.9165 23.7463 22.5336 23.3603 22.0491C22.6235 21.1347 22.6147 21.1191 23.1498 21.0956C23.2638 21.0878 23.7638 21.3379 24.3165 21.6661ZM30.2992 21.1504C30.4483 21.2051 30.2992 21.4317 29.2465 22.7055L29.036 22.9634L28.4746 22.6274C28.1588 22.4476 27.9132 22.2757 27.9307 22.2366C27.9746 22.1194 29.7992 21.0878 29.9659 21.0956C30.0624 21.0956 30.2115 21.1269 30.2992 21.1504ZM21.8953 22.3695C22.2726 22.854 22.6059 23.2916 22.6235 23.3464C22.6498 23.4089 21.8252 23.4323 19.5882 23.4323H16.5179L16.053 23.6511C15.6846 23.8152 15.5179 23.9637 15.2986 24.292L15.0091 24.714V27.668V30.6221H14.7547C14.5266 30.6221 14.5003 30.5986 14.4477 30.2626C14.3424 29.5436 14.395 25.5345 14.5266 24.8859C14.7635 23.7058 15.2723 23.1119 16.4127 22.7212C16.7986 22.5883 20.983 21.4942 21.1497 21.4864C21.176 21.4864 21.5094 21.885 21.8953 22.3695ZM34.0274 22.0256C37.089 22.7837 37.6855 23.0494 38.1241 23.8465C38.5101 24.5577 38.5978 25.2688 38.6066 27.6993C38.6066 28.9106 38.5803 30.0594 38.554 30.2626C38.5013 30.5986 38.475 30.6221 38.2469 30.6221H37.9925V27.6993V24.7765L37.7469 24.3623C37.5715 24.0575 37.3872 23.8778 37.0714 23.7058L36.6504 23.4714L33.545 23.4479C31.8344 23.4401 30.4483 23.4011 30.4659 23.3698C30.5799 23.1197 31.9133 21.5567 32.0098 21.5567C32.0712 21.5567 32.9835 21.7677 34.0274 22.0256ZM26.9043 23.2057C27.071 23.2916 27.2026 23.3854 27.2026 23.4011C27.2026 23.4167 26.8956 23.4323 26.5271 23.4323H25.8517L26.1499 23.2369C26.5271 23.0025 26.5447 23.0025 26.9043 23.2057ZM36.4311 24.8156C36.5802 24.9328 36.589 25.2141 36.589 30.5595V36.1707H26.5008H16.4127V30.5674C16.4127 25.4642 16.4214 24.9562 16.5618 24.8234C16.6934 24.6905 17.1232 24.6827 26.4833 24.6827C35.4661 24.6827 36.2819 24.6905 36.4311 24.8156ZM38.0803 37.8821C38.0803 38.226 38.0364 38.3901 37.896 38.5464L37.7206 38.7496H26.5008H15.281L15.1056 38.5464C14.9652 38.3901 14.9214 38.226 14.9214 37.8821V37.4211H26.5008H38.0803V37.8821Z" fill="#F3F3F4"/>
<path d="M26.2991 30.0144C24.915 30.4276 24.2035 31.7903 24.7591 32.9685C25.7533 35.0433 29.155 34.5686 29.4084 32.3179C29.5156 31.4123 28.9503 30.5243 28.0341 30.1287C27.5662 29.9265 26.7572 29.8737 26.2991 30.0144ZM27.6637 31.6233C28.151 32.1244 27.7612 32.8805 27.0009 32.8805C26.6208 32.8805 26.4063 32.7662 26.2406 32.4761C25.7533 31.6585 26.9717 30.92 27.6637 31.6233Z" fill="#F3F3F4"/>
<path d="M2.355 54H0.665V46.6H2.355V54ZM3.27867 48.01V46.6H11.6587L3.27867 48.01ZM11.6587 46.6V48.04H8.33867V54H6.64867V48.04H3.27867V46.6H11.6587ZM23.1577 50.12C23.7177 50.2333 24.1411 50.43 24.4277 50.71C24.7144 50.9833 24.8577 51.3767 24.8577 51.89V51.93C24.8577 52.51 24.7111 52.95 24.4177 53.25C24.1311 53.55 23.7344 53.75 23.2277 53.85C22.7277 53.9433 22.0644 53.9967 21.2377 54.01H21.2177H20.7477L15.9677 54V46.6H21.6977C22.4711 46.6067 23.0877 46.7667 23.5477 47.08C24.0077 47.3933 24.2377 47.8367 24.2377 48.41V48.45C24.2377 48.8833 24.1477 49.2367 23.9677 49.51C23.7877 49.7833 23.5177 49.9867 23.1577 50.12ZM22.5777 48.68C22.5777 48.4 22.5177 48.2 22.3977 48.08C22.2777 47.9533 22.1211 47.8767 21.9277 47.85C21.7344 47.8167 21.4544 47.8 21.0877 47.8H21.0677H17.5977V49.56L20.1877 49.59H20.0877H21.0877C21.4611 49.59 21.7377 49.58 21.9177 49.56C22.1044 49.5333 22.2611 49.4567 22.3877 49.33C22.5144 49.1967 22.5777 48.98 22.5777 48.68ZM21.4077 52.73C21.8411 52.73 22.1644 52.7133 22.3777 52.68C22.5977 52.6467 22.7711 52.56 22.8977 52.42C23.0244 52.2733 23.0877 52.0367 23.0877 51.71C23.0877 51.3967 23.0244 51.17 22.8977 51.03C22.7711 50.89 22.5977 50.8067 22.3777 50.78C22.1644 50.7467 21.8411 50.73 21.4077 50.73H21.3977H17.5977V52.71C19.1577 52.71 20.2777 52.7167 20.9577 52.73H21.4077ZM30.1034 46.44C30.97 46.44 31.75 46.6067 32.4434 46.94C33.1434 47.2733 33.69 47.7367 34.0834 48.33C34.4767 48.9233 34.6734 49.59 34.6734 50.33C34.6734 51.0633 34.4767 51.7233 34.0834 52.31C33.69 52.8967 33.1467 53.36 32.4534 53.7C31.76 54.0333 30.98 54.2 30.1134 54.2C29.2734 54.2 28.5 54.0333 27.7934 53.7C27.0867 53.36 26.5267 52.8967 26.1134 52.31C25.7 51.7167 25.4934 51.0567 25.4934 50.33C25.4934 49.5967 25.7 48.9333 26.1134 48.34C26.5267 47.7467 27.0834 47.2833 27.7834 46.95C28.49 46.61 29.2634 46.44 30.1034 46.44ZM30.1034 52.82C30.59 52.82 31.05 52.7233 31.4834 52.53C31.9167 52.3367 32.2667 52.0533 32.5334 51.68C32.8 51.3 32.9334 50.85 32.9334 50.33C32.9334 49.8167 32.7967 49.37 32.5234 48.99C32.2567 48.61 31.9034 48.32 31.4634 48.12C31.03 47.92 30.57 47.82 30.0834 47.82C29.5634 47.82 29.0867 47.92 28.6534 48.12C28.2267 48.32 27.8867 48.6067 27.6334 48.98C27.38 49.3533 27.2534 49.7967 27.2534 50.31C27.2534 50.8367 27.3834 51.29 27.6434 51.67C27.91 52.0433 28.26 52.33 28.6934 52.53C29.1267 52.7233 29.5967 52.82 30.1034 52.82ZM39.9988 49.7C40.8321 49.7 41.5254 49.7367 42.0788 49.81C42.6388 49.8833 43.1121 50.0633 43.4988 50.35C43.8921 50.63 44.0888 51.06 44.0888 51.64C44.0888 52.66 43.6454 53.3467 42.7588 53.7C41.8721 54.0533 40.8754 54.23 39.7688 54.23C39.1554 54.23 38.5154 54.1633 37.8488 54.03C37.1821 53.9033 36.5921 53.6433 36.0788 53.25C35.5654 52.85 35.3088 52.2867 35.3088 51.56L37.0688 51.53C37.0688 51.95 37.2321 52.2633 37.5588 52.47C37.8854 52.67 38.2421 52.7933 38.6288 52.84C39.0154 52.8867 39.4321 52.91 39.8788 52.91C40.5588 52.91 41.1421 52.8167 41.6288 52.63C42.1154 52.4367 42.3621 52.12 42.3688 51.68V51.67C42.3688 51.4567 42.2321 51.2967 41.9588 51.19C41.6921 51.0833 41.3954 51.02 41.0688 51C40.7421 50.9733 40.3454 50.9567 39.8788 50.95H39.6588C38.7121 50.95 37.9488 50.9133 37.3688 50.84C36.7888 50.7667 36.2988 50.5833 35.8988 50.29C35.5054 49.99 35.3088 49.5233 35.3088 48.89C35.3088 47.8567 35.7688 47.18 36.6888 46.86C37.6154 46.54 38.6421 46.38 39.7688 46.38C40.3688 46.38 40.9888 46.4467 41.6288 46.58C42.2754 46.7067 42.8454 46.97 43.3388 47.37C43.8388 47.7633 44.0888 48.3233 44.0888 49.05H42.3388C42.3388 48.6233 42.0921 48.3033 41.5988 48.09C41.1054 47.87 40.5054 47.7467 39.7988 47.72C39.0254 47.72 38.3688 47.8133 37.8288 48C37.2954 48.18 37.0288 48.4667 37.0288 48.86C37.0288 49.2067 37.2821 49.4333 37.7888 49.54C38.3021 49.6467 38.9088 49.7 39.6088 49.7H39.9988ZM49.4519 49.7C50.2852 49.7 50.9785 49.7367 51.5319 49.81C52.0919 49.8833 52.5652 50.0633 52.9519 50.35C53.3452 50.63 53.5419 51.06 53.5419 51.64C53.5419 52.66 53.0985 53.3467 52.2119 53.7C51.3252 54.0533 50.3285 54.23 49.2219 54.23C48.6085 54.23 47.9685 54.1633 47.3019 54.03C46.6352 53.9033 46.0452 53.6433 45.5319 53.25C45.0185 52.85 44.7619 52.2867 44.7619 51.56L46.5219 51.53C46.5219 51.95 46.6852 52.2633 47.0119 52.47C47.3385 52.67 47.6952 52.7933 48.0819 52.84C48.4685 52.8867 48.8852 52.91 49.3319 52.91C50.0119 52.91 50.5952 52.8167 51.0819 52.63C51.5685 52.4367 51.8152 52.12 51.8219 51.68V51.67C51.8219 51.4567 51.6852 51.2967 51.4119 51.19C51.1452 51.0833 50.8485 51.02 50.5219 51C50.1952 50.9733 49.7985 50.9567 49.3319 50.95H49.1119C48.1652 50.95 47.4019 50.9133 46.8219 50.84C46.2419 50.7667 45.7519 50.5833 45.3519 50.29C44.9585 49.99 44.7619 49.5233 44.7619 48.89C44.7619 47.8567 45.2219 47.18 46.1419 46.86C47.0685 46.54 48.0952 46.38 49.2219 46.38C49.8219 46.38 50.4419 46.4467 51.0819 46.58C51.7285 46.7067 52.2985 46.97 52.7919 47.37C53.2919 47.7633 53.5419 48.3233 53.5419 49.05H51.7919C51.7919 48.6233 51.5452 48.3033 51.0519 48.09C50.5585 47.87 49.9585 47.7467 49.2519 47.72C48.4785 47.72 47.8219 47.8133 47.2819 48C46.7485 48.18 46.4819 48.4667 46.4819 48.86C46.4819 49.2067 46.7352 49.4333 47.2419 49.54C47.7552 49.6467 48.3619 49.7 49.0619 49.7H49.4519Z" fill="#F3F3F4"/>
</svg>
